<?xml version="1.0" encoding="utf-8"?>
<!-- Generator: Adobe Illustrator 19.1.0, SVG Export Plug-In . SVG Version: 6.00 Build 0)  -->
<svg version="1.1" id="Layer_1" xmlns="http://www.w3.org/2000/svg" xmlns:xlink="http://www.w3.org/1999/xlink" x="0px" y="0px"
	 viewBox="0 0 386.5 102" style="enable-background:new 0 0 386.5 102;" xml:space="preserve">
<style type="text/css">
	.st0{fill:#0078D7;}
	.st1{fill:#124DAF;}
	.st2{fill:#F26522;}
	.st3{fill:#FFFFFF;}
</style>
<rect x="0" y="-0.5" class="st1" width="386.5" height="103"/>
<g>
	<g>
		<path class="st3" d="M56.2,81.9l-33-12.1l33,4.4v-44l-21.9,5.3v30l-11.2,4.3V33l33-12.3l18.4,5.2v50.8L56.2,81.9z"/>
	</g>
</g>
<g>
	<path class="st3" d="M100.2,68.1v-5c0.6,0.5,1.3,1,2.1,1.4c0.8,0.4,1.7,0.7,2.5,1s1.8,0.5,2.7,0.6c0.9,0.2,1.7,0.2,2.5,0.2
		c2.6,0,4.6-0.5,5.9-1.5c1.3-1,1.9-2.4,1.9-4.2c0-1-0.2-1.8-0.6-2.6s-1-1.4-1.8-2s-1.7-1.2-2.7-1.7s-2.2-1.1-3.4-1.7
		c-1.3-0.6-2.5-1.3-3.6-2c-1.1-0.7-2.1-1.4-2.9-2.2s-1.5-1.7-1.9-2.7c-0.5-1-0.7-2.2-0.7-3.5c0-1.7,0.4-3.1,1.1-4.3
		c0.7-1.2,1.7-2.2,2.9-3c1.2-0.8,2.5-1.4,4-1.8c1.5-0.4,3.1-0.6,4.6-0.6c3.6,0,6.2,0.4,7.8,1.3v4.8c-2.1-1.5-4.9-2.2-8.3-2.2
		c-0.9,0-1.9,0.1-2.8,0.3c-0.9,0.2-1.8,0.5-2.5,1c-0.7,0.4-1.3,1-1.8,1.7s-0.7,1.5-0.7,2.5c0,0.9,0.2,1.7,0.5,2.4
		c0.3,0.7,0.9,1.3,1.5,1.9c0.7,0.6,1.5,1.1,2.5,1.6c1,0.5,2.1,1.1,3.4,1.7c1.3,0.6,2.5,1.3,3.7,2s2.2,1.5,3.1,2.4
		c0.9,0.9,1.6,1.8,2.1,2.9c0.5,1,0.8,2.3,0.8,3.6c0,1.8-0.4,3.3-1.1,4.6c-0.7,1.2-1.7,2.3-2.8,3s-2.6,1.3-4.1,1.7
		c-1.6,0.3-3.2,0.5-4.9,0.5c-0.6,0-1.3,0-2.1-0.1c-0.8-0.1-1.7-0.2-2.6-0.4c-0.9-0.2-1.7-0.4-2.5-0.7S100.7,68.4,100.2,68.1z"/>
	<path class="st3" d="M131.1,36.9c-0.7,0-1.4-0.3-1.9-0.8c-0.5-0.5-0.8-1.2-0.8-1.9s0.3-1.4,0.8-1.9c0.5-0.5,1.2-0.8,1.9-0.8
		c0.8,0,1.4,0.3,1.9,0.8c0.5,0.5,0.8,1.2,0.8,1.9c0,0.7-0.3,1.4-0.8,1.9S131.9,36.9,131.1,36.9z M133.1,69.5H129v-26h4.2V69.5z"/>
	<path class="st3" d="M163.7,67.4c0,9.5-4.6,14.3-13.7,14.3c-3.2,0-6-0.6-8.4-1.8v-4.2c2.9,1.6,5.7,2.4,8.4,2.4
		c6.4,0,9.6-3.4,9.6-10.2v-2.8h-0.1c-2,3.3-5,5-8.9,5c-3.2,0-5.8-1.2-7.8-3.5c-2-2.3-3-5.4-3-9.3c0-4.4,1.1-7.9,3.2-10.5
		c2.1-2.6,5-3.9,8.7-3.9c3.5,0,6.1,1.4,7.8,4.2h0.1v-3.6h4.2V67.4z M159.6,57.8v-3.8c0-2.1-0.7-3.8-2.1-5.3s-3.1-2.2-5.2-2.2
		c-2.6,0-4.6,0.9-6,2.8c-1.5,1.9-2.2,4.5-2.2,7.9c0,2.9,0.7,5.2,2.1,6.9c1.4,1.7,3.2,2.6,5.5,2.6c2.3,0,4.2-0.8,5.7-2.5
		C158.9,62.5,159.6,60.4,159.6,57.8z"/>
	<path class="st3" d="M193.8,69.5h-4.2V54.7c0-5.5-2-8.3-6-8.3c-2.1,0-3.8,0.8-5.2,2.3c-1.4,1.6-2,3.5-2,5.9v14.8h-4.2v-26h4.2v4.3
		h0.1c2-3.3,4.8-4.9,8.5-4.9c2.8,0,5,0.9,6.5,2.8c1.5,1.8,2.3,4.5,2.3,8V69.5z"/>
	<path class="st3" d="M218,36.9c-0.7,0-1.4-0.3-1.9-0.8s-0.8-1.2-0.8-1.9s0.3-1.4,0.8-1.9c0.5-0.5,1.2-0.8,1.9-0.8
		c0.8,0,1.4,0.3,1.9,0.8c0.5,0.5,0.8,1.2,0.8,1.9c0,0.7-0.3,1.4-0.8,1.9S218.7,36.9,218,36.9z M220,69.5h-4.2v-26h4.2V69.5z"/>
	<path class="st3" d="M250,69.5h-4.2V54.7c0-5.5-2-8.3-6-8.3c-2.1,0-3.8,0.8-5.2,2.3s-2,3.5-2,5.9v14.8h-4.2v-26h4.2v4.3h0.1
		c2-3.3,4.8-4.9,8.5-4.9c2.8,0,5,0.9,6.5,2.8s2.3,4.5,2.3,8V69.5z"/>
	<path class="st3" d="M293.7,69.5h-4.2V54.7c0-5.5-2-8.3-6-8.3c-2.1,0-3.8,0.8-5.2,2.3s-2,3.5-2,5.9v14.8h-4.2v-26h4.2v4.3h0.1
		c2-3.3,4.8-4.9,8.5-4.9c2.8,0,5,0.9,6.5,2.8s2.3,4.5,2.3,8V69.5z"/>
	<path class="st3" d="M312.4,70.1c-3.8,0-6.9-1.2-9.2-3.6s-3.4-5.6-3.4-9.7c0-4.4,1.2-7.8,3.6-10.2s5.6-3.7,9.7-3.7
		c3.9,0,6.9,1.2,9.1,3.6s3.3,5.7,3.3,9.9c0,4.1-1.2,7.5-3.5,10C319.5,68.9,316.4,70.1,312.4,70.1z M312.7,46.4
		c-2.7,0-4.8,0.9-6.3,2.7s-2.3,4.3-2.3,7.5c0,3.1,0.8,5.5,2.4,7.3c1.6,1.8,3.7,2.7,6.3,2.7c2.7,0,4.8-0.9,6.2-2.6
		c1.4-1.7,2.2-4.2,2.2-7.4c0-3.3-0.7-5.8-2.2-7.5S315.4,46.4,312.7,46.4z"/>
	<path class="st3" d="M364.8,43.5l-7.8,26h-4.3l-5.4-18.6c-0.2-0.7-0.3-1.5-0.4-2.4h-0.1c-0.1,0.6-0.2,1.4-0.5,2.4l-5.8,18.7h-4.2
		l-7.9-26h4.4l5.4,19.6c0.2,0.6,0.3,1.4,0.4,2.3h0.2c0.1-0.7,0.2-1.5,0.5-2.4l6-19.5h3.8l5.4,19.6c0.2,0.6,0.3,1.4,0.4,2.3h0.2
		c0-0.7,0.2-1.4,0.4-2.3l5.3-19.6H364.8z"/>
</g>
</svg>
